<?xml version="1.0" standalone="no"?>
<!DOCTYPE svg PUBLIC "-//W3C//DTD SVG 20010904//EN"
 "http://www.w3.org/TR/2001/REC-SVG-20010904/DTD/svg10.dtd">
<svg version="1.0" xmlns="http://www.w3.org/2000/svg"
 width="800.000000pt" height="800.000000pt" viewBox="0 0 800.000000 800.000000"
 preserveAspectRatio="xMidYMid meet">
<metadata>
Created by potrace 1.11, written by Peter Selinger 2001-2013
</metadata>
<g transform="translate(0.000000,800.000000) scale(0.100000,-0.100000)"
fill="#000000" stroke="none">
<path d="M3690 7654 c-19 -2 -84 -9 -145 -14 -451 -44 -938 -196 -1359 -425
-133 -73 -437 -272 -443 -291 -2 -6 9 -16 24 -23 32 -15 371 -253 562 -395
152 -112 325 -275 403 -377 29 -38 55 -69 58 -69 3 0 11 21 18 46 60 223 193
420 376 556 137 102 615 418 633 418 9 0 31 18 50 39 55 65 137 77 198 29 22
-17 30 -19 51 -9 60 27 146 8 181 -40 7 -9 24 -20 39 -23 14 -4 68 -47 119
-95 104 -100 164 -142 315 -226 160 -88 216 -129 326 -239 192 -193 283 -382
300 -624 4 -51 9 -92 11 -92 2 0 31 22 66 48 34 27 150 108 257 180 214 143
339 248 504 425 60 64 124 123 143 132 34 17 85 17 128 1 26 -10 -112 122
-243 232 -522 439 -1164 720 -1856 813 -110 15 -222 21 -416 24 -146 2 -281 1
-300 -1z"/>
<path d="M1646 6621 c1 -210 23 -477 49 -599 53 -253 213 -497 436 -665 41
-31 189 -123 329 -205 140 -82 289 -170 330 -195 41 -25 77 -44 79 -41 3 2
-22 33 -55 67 -72 74 -134 147 -134 159 0 27 43 -7 152 -122 68 -71 126 -130
130 -130 3 0 -9 43 -28 95 -48 136 -77 257 -128 545 -26 140 -58 288 -73 329
-51 144 -198 327 -383 477 -126 102 -632 460 -680 481 l-26 11 2 -207z m233
-116 c122 -149 210 -296 412 -687 88 -168 159 -313 159 -322 0 -25 -17 -19
-43 17 -30 39 -172 305 -271 506 -99 201 -159 295 -297 468 -36 45 -70 99 -77
119 l-11 37 35 -34 c20 -19 62 -65 93 -104z"/>
<path d="M1355 6588 c-78 -79 -176 -185 -219 -237 l-78 -94 29 -17 c15 -9 49
-29 74 -43 85 -48 213 -150 323 -256 60 -58 106 -97 102 -86 -38 98 -79 467
-80 717 -1 87 -3 158 -6 158 -2 0 -68 -64 -145 -142z"/>
<path d="M6572 6510 c6 -19 17 -44 25 -55 21 -32 15 -91 -27 -253 -40 -154
-88 -293 -141 -411 -16 -35 -28 -66 -26 -68 2 -1 40 10 84 27 135 49 228 61
432 58 100 -2 181 1 181 6 0 21 -156 262 -253 391 -57 75 -154 191 -247 295
l-40 45 12 -35z"/>
<path d="M6270 6324 c-179 -180 -286 -267 -510 -415 -96 -64 -210 -144 -252
-178 -156 -126 -287 -288 -378 -470 -23 -46 -52 -100 -65 -120 -13 -20 -24
-51 -24 -71 0 -19 -20 -89 -44 -155 -25 -66 -50 -133 -56 -150 -9 -23 6 -11
66 53 43 45 86 82 96 82 9 0 17 -3 17 -6 0 -3 -25 -38 -55 -77 -30 -39 -53
-72 -50 -75 2 -3 33 13 67 35 35 22 182 115 328 207 439 278 533 352 664 527
153 203 270 454 347 747 17 64 33 126 36 137 9 32 -24 -15 -100 -140 -64 -107
-166 -233 -167 -207 0 18 12 40 93 166 56 87 144 256 134 256 -1 0 -67 -66
-147 -146z m-110 -340 c0 -16 -187 -232 -276 -319 -206 -201 -445 -425 -454
-425 -5 0 -10 9 -10 21 0 13 119 139 363 379 199 198 365 360 370 360 4 0 7
-7 7 -16z"/>
<path d="M216 6329 c6 -8 67 -88 135 -179 188 -252 465 -548 624 -669 150
-113 400 -216 648 -266 178 -36 264 -41 368 -21 47 9 105 16 129 16 l43 0
-169 116 c-221 152 -269 192 -454 381 -204 207 -286 282 -394 355 -215 144
-337 184 -746 248 -69 10 -141 22 -160 26 -29 6 -33 5 -24 -7z m615 -392 c101
-73 279 -197 395 -275 224 -150 246 -168 222 -177 -24 -10 -305 166 -558 349
-328 237 -328 236 -271 236 21 0 78 -35 212 -133z"/>
<path d="M7695 5698 c-33 -6 -209 -9 -395 -7 -575 6 -595 5 -690 -20 -104 -27
-254 -99 -375 -179 -106 -71 -610 -490 -601 -500 2 -2 43 4 90 14 80 17 112
15 90 -5 -5 -5 -40 -19 -77 -31 -38 -12 -66 -24 -63 -27 10 -10 618 -73 761
-79 323 -14 612 79 833 269 112 95 353 361 400 441 28 47 63 90 86 108 43 31
40 32 -59 16z m-585 -318 c0 -6 -10 -15 -22 -20 -45 -19 -394 -99 -698 -160
-66 -13 -301 -93 -421 -144 -94 -39 -122 -46 -128 -31 -2 6 29 27 70 47 166
83 365 143 814 244 321 72 385 83 385 64z"/>
<path d="M587 5458 c-136 -313 -235 -694 -278 -1078 -20 -169 -17 -591 5 -770
55 -462 209 -954 412 -1318 l35 -63 107 109 c220 225 407 341 648 405 l87 23
-65 37 c-159 89 -326 243 -397 367 -154 266 -204 360 -208 390 -4 19 -17 48
-30 64 -13 16 -27 41 -30 56 -3 19 -22 40 -60 67 -94 66 -111 83 -124 120 -6
20 -21 52 -32 70 -15 26 -18 46 -15 84 6 64 41 102 120 131 52 19 58 24 58 49
0 57 29 104 102 165 100 83 171 168 307 372 116 173 177 244 254 294 l37 25
-67 18 c-177 46 -430 162 -547 249 -32 24 -104 87 -161 140 -57 53 -106 96
-108 96 -3 0 -25 -46 -50 -102z"/>
<path d="M3624 5123 c-77 -83 -39 -215 53 -182 66 23 80 152 20 194 -30 21
-44 19 -73 -12z"/>
<path d="M4072 5127 c-35 -42 -37 -147 -3 -188 21 -26 75 -28 100 -5 41 37 33
134 -16 188 -19 21 -66 24 -81 5z"/>
<path d="M7365 4988 c-229 -194 -525 -300 -846 -302 l-136 -1 87 -87 c49 -48
113 -125 145 -175 32 -48 74 -113 94 -143 60 -93 195 -217 344 -319 142 -96
181 -134 197 -192 22 -74 -38 -162 -119 -175 -31 -5 -41 -13 -55 -41 -9 -19
-14 -38 -11 -44 3 -5 3 -25 -1 -46 -5 -27 -28 -59 -93 -128 -63 -67 -110 -132
-175 -241 -71 -118 -108 -167 -175 -235 -48 -47 -99 -95 -115 -106 l-28 -19
100 -27 c211 -55 360 -136 498 -269 l93 -90 49 99 c322 641 435 1472 301 2216
-22 125 -78 358 -88 369 -3 3 -33 -16 -66 -44z"/>
<path d="M3540 4771 c-70 -75 -123 -155 -147 -223 -25 -69 -28 -175 -8 -244
15 -51 27 -69 90 -130 88 -86 126 -105 206 -105 76 -1 163 39 196 89 30 45 47
134 39 207 -9 86 -52 258 -77 308 -62 121 -114 167 -189 167 -43 0 -48 -3
-110 -69z"/>
<path d="M4154 4771 c-70 -43 -102 -109 -129 -267 -22 -128 -24 -255 -6 -319
28 -95 116 -157 205 -142 54 9 207 79 237 109 49 50 73 129 73 248 1 94 -2
111 -26 162 -46 98 -107 161 -206 212 -42 22 -110 20 -148 -3z"/>
<path d="M3143 4544 c-22 -34 -22 -113 0 -147 32 -50 96 -47 123 5 48 92 -68
226 -123 142z"/>
<path d="M4622 4388 c-45 -49 -54 -119 -21 -162 41 -52 111 -25 127 49 21 98
-49 173 -106 113z"/>
<path d="M3186 4175 c-78 -78 -136 -252 -136 -409 0 -59 5 -82 28 -126 35 -69
64 -90 149 -106 100 -19 151 -17 208 10 60 28 137 108 155 160 20 61 16 153
-9 235 -20 67 -30 82 -89 141 -79 78 -172 130 -231 130 -33 0 -47 -6 -75 -35z"/>
<path d="M4574 4110 c-47 -11 -155 -74 -190 -112 -58 -61 -124 -159 -135 -201
-49 -184 189 -373 394 -313 48 14 61 23 84 59 73 115 94 425 34 507 -36 50
-119 76 -187 60z"/>
<path d="M3821 3840 c-87 -21 -177 -125 -212 -245 -60 -206 -67 -216 -190
-298 -92 -61 -132 -130 -133 -227 0 -77 23 -130 80 -180 102 -89 193 -92 363
-13 149 70 255 68 373 -9 90 -58 118 -68 200 -68 60 0 84 5 134 29 73 34 104
72 134 161 17 49 21 79 17 124 -8 86 -48 138 -172 224 -115 79 -157 129 -203
241 -38 93 -121 215 -160 235 -55 28 -168 41 -231 26z"/>
<path d="M5145 2933 c27 -67 91 -267 115 -363 16 -63 56 -254 90 -425 81 -406
113 -492 252 -677 129 -170 251 -278 675 -595 222 -166 300 -220 307 -212 1 2
-1 90 -5 194 -7 183 -44 537 -75 717 -51 300 -188 572 -392 775 -93 93 -175
153 -376 274 -140 84 -348 212 -486 297 l-25 16 21 -25 c11 -13 45 -53 76 -89
85 -100 129 -161 122 -171 -11 -18 -42 11 -169 156 -70 80 -130 145 -132 145
-3 0 -2 -8 2 -17z m752 -1013 c90 -179 175 -354 190 -390 41 -97 170 -310 267
-440 78 -105 128 -200 106 -200 -14 0 -151 174 -213 271 -31 48 -86 140 -123
205 -78 138 -424 847 -424 870 0 9 7 14 18 12 11 -2 69 -108 179 -328z"/>
<path d="M2600 2864 c-144 -49 -312 -88 -695 -159 -193 -35 -374 -72 -403 -80
-273 -82 -500 -276 -835 -715 -102 -135 -201 -264 -218 -288 l-32 -43 34 14
c19 8 67 29 108 47 40 17 75 29 78 26 14 -13 -11 -37 -77 -72 -72 -39 -72 -39
-37 -42 57 -5 822 86 957 114 275 57 528 185 703 357 95 93 126 137 288 407
75 124 159 263 189 310 29 47 47 80 39 74 -8 -6 -60 -48 -117 -92 -118 -94
-140 -108 -153 -95 -14 14 9 37 151 153 116 95 145 122 123 118 -4 0 -51 -16
-103 -34z m-572 -491 c-2 -11 -40 -36 -98 -65 -101 -50 -530 -242 -638 -285
-89 -36 -270 -135 -370 -202 -179 -121 -228 -150 -251 -150 -24 -1 -24 -1 -6
19 62 68 280 207 499 317 137 69 836 382 854 383 8 0 12 -8 10 -17z m-108
-274 c-50 -151 -130 -289 -130 -225 0 7 24 68 54 137 92 214 135 263 76 88z"/>
<path d="M6165 2633 c-33 -8 -84 -18 -114 -21 l-53 -7 137 -115 c158 -131 213
-192 351 -386 215 -301 379 -414 674 -463 190 -31 305 -49 307 -47 10 8 -184
352 -265 472 -192 285 -268 362 -442 449 -191 96 -468 151 -595 118z m530
-350 c118 -85 495 -416 495 -434 0 -5 -11 -9 -25 -9 -17 0 -53 25 -117 83
-109 98 -278 242 -405 345 -86 68 -112 102 -80 102 6 0 66 -39 132 -87z"/>
<path d="M2403 2114 c-198 -210 -403 -482 -471 -627 -16 -34 -40 -102 -53
-152 -21 -79 -24 -112 -24 -275 0 -242 17 -331 84 -450 26 -47 52 -96 57 -108
8 -21 17 -5 69 125 76 191 96 228 214 397 109 156 169 268 212 395 71 210 95
477 62 705 l-19 129 -131 -139z m-13 -244 c9 -17 -1 -48 -59 -178 -67 -150
-195 -467 -220 -544 -15 -45 -38 -67 -47 -45 -10 28 91 316 191 542 89 200
111 245 121 245 2 0 8 -9 14 -20z"/>
<path d="M6630 1683 c0 -4 5 -25 11 -46 10 -38 11 -38 30 -21 25 23 24 26 -11
52 -16 13 -30 19 -30 15z"/>
<path d="M5285 1553 c-58 -171 -167 -317 -278 -373 -91 -45 -152 -54 -288 -41
-249 23 -292 12 -364 -93 -54 -79 -85 -101 -144 -101 -53 0 -95 22 -119 65
-16 27 -17 28 -99 23 -74 -4 -90 -1 -140 22 -83 38 -139 41 -299 15 -106 -17
-161 -21 -229 -17 -242 16 -465 127 -613 306 l-50 60 -32 -92 c-46 -133 -116
-263 -225 -417 -52 -74 -95 -138 -95 -142 0 -19 242 -125 440 -193 245 -84
509 -144 775 -177 171 -20 685 -18 855 5 517 69 982 228 1410 483 l110 65 -72
58 c-101 81 -282 269 -356 369 -34 46 -81 123 -104 172 -24 49 -45 89 -48 89
-3 1 -19 -38 -35 -86z"/>
<path d="M1740 1555 c-47 -18 -141 -45 -210 -60 -69 -14 -138 -29 -154 -33
l-28 -7 83 -80 c111 -106 268 -237 278 -230 5 2 11 33 15 68 9 93 42 211 81
296 19 40 35 75 35 77 0 7 -11 3 -100 -31z"/>
</g>
</svg>
